<svg width="27" height="26" viewBox="0 0 27 26" fill="none" xmlns="http://www.w3.org/2000/svg">
<path fill-rule="evenodd" clip-rule="evenodd" d="M5.33333 12.8333V11.1667C5.33333 8.86548 7.19881 7 9.5 7C11.8012 7 13.6667 8.86548 13.6667 11.1667V12.8333H16.1667C16.6269 12.8333 17 13.2064 17 13.6667V23.6667C17 24.1269 16.6269 24.5 16.1667 24.5H2.83333C2.3731 24.5 2 24.1269 2 23.6667V13.6667C2 13.2064 2.3731 12.8333 2.83333 12.8333H5.33333ZM5.33333 14.5H3.66667V22.8333H15.3333V14.5H13.6667V16.1667H12V14.5H7V16.1667H5.33333V14.5ZM12 11.166V12.8327H7V11.166C7 9.7853 8.11929 8.66602 9.5 8.66602C10.8807 8.66602 12 9.7853 12 11.166Z" fill="#F1B301"/>
<g clip-path="url(#clip0_1_59)">
<path d="M25.5 8C25.5 11.5899 22.5899 14.5 19 14.5C15.4101 14.5 12.5 11.5899 12.5 8C12.5 4.41015 15.4101 1.5 19 1.5C22.5899 1.5 25.5 4.41015 25.5 8Z" fill="#F1B301" stroke="#800A7A" stroke-width="3"/>
<path d="M19.2564 12.0994C20.8118 12.0994 21.9446 11.2081 21.9411 9.9794C21.9446 9.07031 21.3764 8.4169 20.3572 8.27131V8.21449C21.1456 8.04403 21.6747 7.4581 21.6712 6.64134C21.6747 5.53338 20.7301 4.62784 19.2777 4.62784C17.8643 4.62784 16.7706 5.46946 16.7422 6.6875H18.0099C18.0312 6.0767 18.5994 5.69673 19.2706 5.69673C19.9489 5.69673 20.3999 6.10866 20.3963 6.71946C20.3999 7.35511 19.8743 7.7777 19.1214 7.7777H18.4787V8.79332H19.1214C20.0412 8.79332 20.5881 9.25497 20.5845 9.91193C20.5881 10.5547 20.0305 10.995 19.2528 10.995C18.5213 10.995 17.9567 10.6151 17.9247 10.022H16.5895C16.625 11.2507 17.7223 12.0994 19.2564 12.0994Z" fill="white"/>
</g>
<defs>
<clipPath id="clip0_1_59">
<rect width="16" height="16" fill="white" transform="translate(11)"/>
</clipPath>
</defs>
</svg>
